<?xml version="1.0" encoding="utf-8"?>
<!-- Generator: Adobe Illustrator 26.2.1, SVG Export Plug-In . SVG Version: 6.00 Build 0)  -->
<svg version="1.1" id="Layer_1" xmlns="http://www.w3.org/2000/svg" xmlns:xlink="http://www.w3.org/1999/xlink" x="0px" y="0px"
	 viewBox="0 0 25 25" style="enable-background:new 0 0 25 25;" xml:space="preserve">
<style type="text/css">
	.st0{fill:url(#SVGID_1_);}
	.st1{fill:#B52025;}
</style>
<linearGradient id="SVGID_1_" gradientUnits="userSpaceOnUse" x1="1.3768" y1="12.6202" x2="23" y2="12.6202">
	<stop  offset="0" style="stop-color:#EC1C24"/>
	<stop  offset="1" style="stop-color:#9D1C20"/>
</linearGradient>
<path class="st0" d="M23,14.33c0,4.03-1.85,6.61-6.82,6.61H8.17c-4.94,0-6.79-2.58-6.79-6.61v-3.43c0-4,1.85-6.61,6.79-6.61h8.01
	C21.15,4.3,23,6.9,23,10.91V14.33z M15.18,16.06c1.73,0,2.34-0.58,2.34-2.46v-2.34c0-2-0.67-2.61-2.34-2.61H9.2
	c-1.73,0-2.3,0.64-2.3,2.61v2.34c0,1.88,0.58,2.46,2.3,2.46H15.18z"/>
<path class="st1" d="M12.36,13.85h-0.34c-0.63,0-1.13-0.51-1.13-1.13v-0.34c0-0.63,0.51-1.13,1.13-1.13h0.34
	c0.63,0,1.13,0.51,1.13,1.13v0.34C13.49,13.34,12.99,13.85,12.36,13.85z"/>
</svg>
